<svg width="359" height="42" viewBox="0 0 359 42" fill="none" xmlns="http://www.w3.org/2000/svg">
<path d="M19.0028 8.24684C19.6314 6.31209 22.3686 6.31209 22.9972 8.24684L25.2433 15.1596C25.5244 16.0249 26.3307 16.6107 27.2405 16.6107H34.509C36.5434 16.6107 37.3892 19.2139 35.7434 20.4096L29.863 24.6819C29.127 25.2167 28.819 26.1646 29.1002 27.0298L31.3463 33.9426C31.9749 35.8773 29.7605 37.4862 28.1147 36.2905L22.2343 32.0181C21.4983 31.4834 20.5017 31.4834 19.7656 32.0181L13.8853 36.2905C12.2395 37.4862 10.0251 35.8773 10.6537 33.9426L12.8998 27.0298C13.181 26.1646 12.873 25.2167 12.1369 24.6819L6.25659 20.4096C4.61079 19.2139 5.45662 16.6107 7.49094 16.6107H14.7595C15.6692 16.6107 16.4755 16.0249 16.7567 15.1596L19.0028 8.24684Z" fill="#FF8A00"/>
<path d="M61.0028 8.24684C61.6314 6.31209 64.3686 6.31209 64.9972 8.24684L67.2433 15.1596C67.5244 16.0249 68.3307 16.6107 69.2405 16.6107H76.509C78.5434 16.6107 79.3892 19.2139 77.7434 20.4096L71.863 24.6819C71.127 25.2167 70.819 26.1646 71.1002 27.0298L73.3463 33.9426C73.9749 35.8773 71.7605 37.4862 70.1147 36.2905L64.2343 32.0181C63.4983 31.4834 62.5017 31.4834 61.7656 32.0181L55.8853 36.2905C54.2395 37.4862 52.0251 35.8773 52.6537 33.9426L54.8998 27.0298C55.181 26.1646 54.873 25.2167 54.1369 24.6819L48.2566 20.4096C46.6108 19.2139 47.4566 16.6107 49.4909 16.6107H56.7595C57.6692 16.6107 58.4755 16.0249 58.7567 15.1596L61.0028 8.24684Z" fill="#FF8A00"/>
<path d="M103.003 8.24684C103.631 6.31209 106.369 6.31209 106.997 8.24684L109.243 15.1596C109.524 16.0249 110.331 16.6107 111.241 16.6107H118.509C120.543 16.6107 121.389 19.2139 119.743 20.4096L113.863 24.6819C113.127 25.2167 112.819 26.1646 113.1 27.0298L115.346 33.9426C115.975 35.8773 113.76 37.4862 112.115 36.2905L106.234 32.0181C105.498 31.4834 104.502 31.4834 103.766 32.0181L97.8853 36.2905C96.2395 37.4862 94.0251 35.8773 94.6537 33.9426L96.8998 27.0298C97.181 26.1646 96.873 25.2167 96.1369 24.6819L90.2566 20.4096C88.6108 19.2139 89.4566 16.6107 91.4909 16.6107H98.7595C99.6692 16.6107 100.476 16.0249 100.757 15.1596L103.003 8.24684Z" fill="#FF8A00"/>
<path d="M145.003 8.24684C145.631 6.31209 148.369 6.31209 148.997 8.24684L151.243 15.1596C151.524 16.0249 152.331 16.6107 153.241 16.6107H160.509C162.543 16.6107 163.389 19.2139 161.743 20.4096L155.863 24.6819C155.127 25.2167 154.819 26.1646 155.1 27.0298L157.346 33.9426C157.975 35.8773 155.761 37.4862 154.115 36.2905L148.234 32.0181C147.498 31.4834 146.502 31.4834 145.766 32.0181L139.885 36.2905C138.24 37.4862 136.025 35.8773 136.654 33.9426L138.9 27.0298C139.181 26.1646 138.873 25.2167 138.137 24.6819L132.257 20.4096C130.611 19.2139 131.457 16.6107 133.491 16.6107H140.759C141.669 16.6107 142.476 16.0249 142.757 15.1596L145.003 8.24684Z" fill="#FF8A00"/>
<path d="M187.003 8.24684C187.631 6.31209 190.369 6.31209 190.997 8.24684L193.243 15.1596C193.524 16.0249 194.331 16.6107 195.241 16.6107H202.509C204.543 16.6107 205.389 19.2139 203.743 20.4096L197.863 24.6819C197.127 25.2167 196.819 26.1646 197.1 27.0298L199.346 33.9426C199.975 35.8773 197.761 37.4862 196.115 36.2905L190.234 32.0181C189.498 31.4834 188.502 31.4834 187.766 32.0181L181.885 36.2905C180.24 37.4862 178.025 35.8773 178.654 33.9426L180.9 27.0298C181.181 26.1646 180.873 25.2167 180.137 24.6819L174.257 20.4096C172.611 19.2139 173.457 16.6107 175.491 16.6107H182.759C183.669 16.6107 184.476 16.0249 184.757 15.1596L187.003 8.24684Z" fill="#FF8A00"/>
<path d="M239.767 15.3636V27H237.659V17.4148H237.591L234.869 19.1534V17.2216L237.761 15.3636H239.767ZM246.698 27.1591C245.853 27.1591 245.103 27.017 244.448 26.733C243.796 26.4489 243.285 26.0606 242.914 25.5682C242.546 25.072 242.365 24.5095 242.368 23.8807C242.365 23.392 242.471 22.9432 242.687 22.5341C242.903 22.125 243.194 21.7841 243.562 21.5114C243.933 21.2348 244.346 21.0587 244.8 20.983V20.9034C244.202 20.7708 243.717 20.4659 243.346 19.9886C242.978 19.5076 242.796 18.9527 242.8 18.3239C242.796 17.7254 242.963 17.1913 243.3 16.7216C243.637 16.2519 244.099 15.8826 244.687 15.6136C245.274 15.3409 245.944 15.2045 246.698 15.2045C247.444 15.2045 248.109 15.3409 248.692 15.6136C249.279 15.8826 249.742 16.2519 250.079 16.7216C250.42 17.1913 250.59 17.7254 250.59 18.3239C250.59 18.9527 250.403 19.5076 250.028 19.9886C249.656 20.4659 249.177 20.7708 248.59 20.9034V20.983C249.045 21.0587 249.454 21.2348 249.817 21.5114C250.185 21.7841 250.476 22.125 250.692 22.5341C250.912 22.9432 251.022 23.392 251.022 23.8807C251.022 24.5095 250.836 25.072 250.465 25.5682C250.094 26.0606 249.582 26.4489 248.931 26.733C248.283 27.017 247.539 27.1591 246.698 27.1591ZM246.698 25.5341C247.134 25.5341 247.512 25.4602 247.834 25.3125C248.156 25.161 248.406 24.9489 248.584 24.6761C248.762 24.4034 248.853 24.089 248.857 23.733C248.853 23.3617 248.757 23.0341 248.567 22.75C248.382 22.4621 248.126 22.2367 247.8 22.0739C247.478 21.911 247.111 21.8295 246.698 21.8295C246.281 21.8295 245.91 21.911 245.584 22.0739C245.259 22.2367 245.001 22.4621 244.812 22.75C244.626 23.0341 244.535 23.3617 244.539 23.733C244.535 24.089 244.622 24.4034 244.8 24.6761C244.978 24.9451 245.228 25.1553 245.55 25.3068C245.876 25.4583 246.259 25.5341 246.698 25.5341ZM246.698 20.233C247.054 20.233 247.368 20.161 247.641 20.017C247.918 19.8731 248.135 19.6723 248.295 19.4148C248.454 19.1572 248.535 18.8598 248.539 18.5227C248.535 18.1894 248.456 17.8977 248.3 17.6477C248.145 17.3939 247.929 17.1989 247.653 17.0625C247.376 16.9223 247.058 16.8523 246.698 16.8523C246.331 16.8523 246.007 16.9223 245.726 17.0625C245.45 17.1989 245.234 17.3939 245.079 17.6477C244.927 17.8977 244.853 18.1894 244.857 18.5227C244.853 18.8598 244.929 19.1572 245.084 19.4148C245.243 19.6686 245.461 19.8693 245.738 20.017C246.018 20.161 246.338 20.233 246.698 20.233ZM254.823 25.4091L254.75 26.0341C254.697 26.5114 254.602 26.9962 254.466 27.4886C254.333 27.9848 254.193 28.4413 254.045 28.858C253.897 29.2746 253.778 29.6023 253.687 29.8409H252.301C252.354 29.6098 252.426 29.2955 252.517 28.8977C252.611 28.5 252.702 28.053 252.789 27.5568C252.876 27.0606 252.935 26.5568 252.966 26.0455L253.005 25.4091H254.823ZM260.813 15.2045C261.369 15.2083 261.911 15.3068 262.438 15.5C262.968 15.6894 263.445 16 263.869 16.4318C264.294 16.8598 264.631 17.4337 264.881 18.1534C265.131 18.8731 265.256 19.7633 265.256 20.8239C265.26 21.8239 265.154 22.7178 264.938 23.5057C264.725 24.2898 264.421 24.9527 264.023 25.4943C263.625 26.036 263.146 26.4489 262.585 26.733C262.025 27.017 261.394 27.1591 260.693 27.1591C259.958 27.1591 259.307 27.0152 258.739 26.7273C258.174 26.4394 257.718 26.0455 257.369 25.5455C257.021 25.0455 256.807 24.4735 256.727 23.8295H258.801C258.907 24.2917 259.123 24.6591 259.449 24.9318C259.779 25.2008 260.193 25.3352 260.693 25.3352C261.5 25.3352 262.121 24.9848 262.557 24.2841C262.993 23.5833 263.21 22.6098 263.21 21.3636H263.131C262.945 21.697 262.705 21.9848 262.409 22.2273C262.114 22.4659 261.779 22.6496 261.404 22.7784C261.032 22.9072 260.638 22.9716 260.222 22.9716C259.54 22.9716 258.926 22.8087 258.381 22.483C257.839 22.1572 257.409 21.7102 257.091 21.142C256.777 20.5739 256.618 19.9242 256.614 19.1932C256.614 18.4356 256.788 17.7557 257.136 17.1534C257.489 16.5473 257.979 16.0701 258.608 15.7216C259.237 15.3693 259.972 15.197 260.813 15.2045ZM260.818 16.9091C260.409 16.9091 260.04 17.0095 259.71 17.2102C259.385 17.4072 259.127 17.6761 258.938 18.017C258.752 18.3542 258.659 18.7311 258.659 19.1477C258.663 19.5606 258.756 19.9356 258.938 20.2727C259.123 20.6098 259.375 20.8769 259.693 21.0739C260.015 21.2708 260.383 21.3693 260.796 21.3693C261.102 21.3693 261.388 21.3106 261.654 21.1932C261.919 21.0758 262.15 20.9129 262.347 20.7045C262.547 20.4924 262.703 20.2519 262.813 19.983C262.926 19.714 262.981 19.4299 262.977 19.1307C262.977 18.733 262.883 18.3655 262.693 18.0284C262.508 17.6913 262.252 17.4205 261.926 17.2159C261.604 17.0114 261.235 16.9091 260.818 16.9091ZM266.988 27V25.4773L271.028 21.517C271.414 21.1269 271.736 20.7803 271.994 20.4773C272.251 20.1742 272.444 19.8807 272.573 19.5966C272.702 19.3125 272.766 19.0095 272.766 18.6875C272.766 18.3201 272.683 18.0057 272.516 17.7443C272.35 17.4792 272.12 17.2746 271.829 17.1307C271.537 16.9867 271.206 16.9148 270.834 16.9148C270.452 16.9148 270.117 16.9943 269.829 17.1534C269.541 17.3087 269.317 17.5303 269.158 17.8182C269.003 18.1061 268.925 18.4489 268.925 18.8466H266.92C266.92 18.108 267.088 17.4659 267.425 16.9205C267.762 16.375 268.226 15.9527 268.817 15.6534C269.412 15.3542 270.094 15.2045 270.863 15.2045C271.643 15.2045 272.329 15.3504 272.92 15.642C273.511 15.9337 273.969 16.3333 274.295 16.8409C274.624 17.3485 274.789 17.928 274.789 18.5795C274.789 19.0152 274.706 19.4432 274.539 19.8636C274.372 20.2841 274.079 20.75 273.658 21.2614C273.242 21.7727 272.656 22.392 271.903 23.1193L269.897 25.1591V25.2386H274.965V27H266.988ZM281.498 15.3636V27H279.39V17.4148H279.322L276.601 19.1534V17.2216L279.493 15.3636H281.498ZM288.636 22.2557C288.636 20.8352 288.823 19.5303 289.198 18.3409C289.577 17.1477 290.139 16.0455 290.886 15.0341H292.823C292.535 15.4091 292.266 15.8693 292.016 16.4148C291.766 16.9564 291.549 17.5511 291.363 18.1989C291.181 18.8428 291.037 19.5114 290.931 20.2045C290.829 20.8977 290.778 21.5814 290.778 22.2557C290.778 23.1534 290.867 24.0625 291.045 24.983C291.227 25.9034 291.471 26.7557 291.778 27.5398C292.088 28.3277 292.437 28.9716 292.823 29.4716H290.886C290.139 28.4602 289.577 27.3598 289.198 26.1705C288.823 24.9773 288.636 23.6723 288.636 22.2557ZM294.261 27V18.2727H296.256V19.7273H296.346C296.506 19.2235 296.778 18.8352 297.165 18.5625C297.555 18.286 298 18.1477 298.5 18.1477C298.613 18.1477 298.74 18.1534 298.881 18.1648C299.024 18.1723 299.144 18.1856 299.238 18.2045V20.0966C299.151 20.0663 299.013 20.0398 298.824 20.017C298.638 19.9905 298.458 19.9773 298.284 19.9773C297.909 19.9773 297.572 20.0587 297.273 20.2216C296.977 20.3807 296.744 20.6023 296.574 20.8864C296.403 21.1705 296.318 21.4981 296.318 21.8693V27H294.261ZM303.949 27.1705C303.074 27.1705 302.319 26.9886 301.682 26.625C301.05 26.2576 300.563 25.7386 300.222 25.0682C299.881 24.3939 299.711 23.6004 299.711 22.6875C299.711 21.7898 299.881 21.0019 300.222 20.3239C300.567 19.642 301.048 19.1117 301.665 18.733C302.283 18.3504 303.008 18.1591 303.841 18.1591C304.379 18.1591 304.887 18.2462 305.364 18.4205C305.845 18.5909 306.269 18.8561 306.637 19.2159C307.008 19.5758 307.3 20.0341 307.512 20.5909C307.724 21.1439 307.83 21.803 307.83 22.5682V23.1989H300.676V21.8125H305.858C305.855 21.4186 305.769 21.0682 305.603 20.7614C305.436 20.4508 305.203 20.2064 304.904 20.0284C304.608 19.8504 304.264 19.7614 303.87 19.7614C303.449 19.7614 303.08 19.8636 302.762 20.0682C302.444 20.2689 302.195 20.5341 302.017 20.8636C301.843 21.1894 301.754 21.5473 301.75 21.9375V23.1477C301.75 23.6553 301.843 24.0909 302.029 24.4545C302.214 24.8144 302.474 25.0909 302.807 25.2841C303.14 25.4735 303.531 25.5682 303.978 25.5682C304.277 25.5682 304.548 25.5265 304.79 25.4432C305.033 25.3561 305.243 25.2292 305.421 25.0625C305.599 24.8958 305.733 24.6894 305.824 24.4432L307.745 24.6591C307.623 25.1667 307.392 25.6098 307.051 25.9886C306.714 26.3636 306.283 26.6553 305.756 26.8636C305.23 27.0682 304.627 27.1705 303.949 27.1705ZM316.955 18.2727L313.847 27H311.575L308.467 18.2727H310.66L312.666 24.7557H312.757L314.768 18.2727H316.955ZM318.219 27V18.2727H320.276V27H318.219ZM319.253 17.0341C318.927 17.0341 318.647 16.9261 318.412 16.7102C318.177 16.4905 318.06 16.2273 318.06 15.9205C318.06 15.6098 318.177 15.3466 318.412 15.1307C318.647 14.911 318.927 14.8011 319.253 14.8011C319.582 14.8011 319.863 14.911 320.094 15.1307C320.329 15.3466 320.446 15.6098 320.446 15.9205C320.446 16.2273 320.329 16.4905 320.094 16.7102C319.863 16.9261 319.582 17.0341 319.253 17.0341ZM326.094 27.1705C325.219 27.1705 324.464 26.9886 323.827 26.625C323.195 26.2576 322.708 25.7386 322.367 25.0682C322.026 24.3939 321.856 23.6004 321.856 22.6875C321.856 21.7898 322.026 21.0019 322.367 20.3239C322.712 19.642 323.193 19.1117 323.81 18.733C324.428 18.3504 325.153 18.1591 325.986 18.1591C326.524 18.1591 327.032 18.2462 327.509 18.4205C327.99 18.5909 328.414 18.8561 328.782 19.2159C329.153 19.5758 329.445 20.0341 329.657 20.5909C329.869 21.1439 329.975 21.803 329.975 22.5682V23.1989H322.821V21.8125H328.003C328 21.4186 327.914 21.0682 327.748 20.7614C327.581 20.4508 327.348 20.2064 327.049 20.0284C326.753 19.8504 326.409 19.7614 326.015 19.7614C325.594 19.7614 325.225 19.8636 324.907 20.0682C324.589 20.2689 324.34 20.5341 324.162 20.8636C323.988 21.1894 323.899 21.5473 323.895 21.9375V23.1477C323.895 23.6553 323.988 24.0909 324.174 24.4545C324.359 24.8144 324.619 25.0909 324.952 25.2841C325.285 25.4735 325.676 25.5682 326.123 25.5682C326.422 25.5682 326.693 25.5265 326.935 25.4432C327.178 25.3561 327.388 25.2292 327.566 25.0625C327.744 24.8958 327.878 24.6894 327.969 24.4432L329.89 24.6591C329.768 25.1667 329.537 25.6098 329.196 25.9886C328.859 26.3636 328.428 26.6553 327.901 26.8636C327.375 27.0682 326.772 27.1705 326.094 27.1705ZM333.309 27L330.843 18.2727H332.94L334.474 24.4091H334.554L336.122 18.2727H338.196L339.764 24.375H339.849L341.36 18.2727H343.463L340.991 27H338.849L337.213 21.1023H337.093L335.457 27H333.309ZM351.636 20.5795L349.761 20.7841C349.708 20.5947 349.616 20.4167 349.483 20.25C349.354 20.0833 349.18 19.9489 348.96 19.8466C348.741 19.7443 348.472 19.6932 348.153 19.6932C347.725 19.6932 347.366 19.786 347.074 19.9716C346.786 20.1572 346.644 20.3977 346.648 20.6932C346.644 20.947 346.737 21.1534 346.926 21.3125C347.119 21.4716 347.438 21.6023 347.881 21.7045L349.369 22.0227C350.195 22.2008 350.809 22.483 351.21 22.8693C351.616 23.2557 351.82 23.7614 351.824 24.3864C351.82 24.9356 351.659 25.4205 351.341 25.8409C351.027 26.2576 350.589 26.5833 350.028 26.8182C349.468 27.053 348.824 27.1705 348.097 27.1705C347.028 27.1705 346.169 26.947 345.517 26.5C344.866 26.0492 344.477 25.4223 344.352 24.6193L346.358 24.4261C346.449 24.8201 346.642 25.1174 346.938 25.3182C347.233 25.5189 347.617 25.6193 348.091 25.6193C348.58 25.6193 348.972 25.5189 349.267 25.3182C349.566 25.1174 349.716 24.8693 349.716 24.5739C349.716 24.3239 349.619 24.1174 349.426 23.9545C349.237 23.7917 348.941 23.6667 348.54 23.5795L347.051 23.267C346.214 23.0928 345.595 22.7992 345.193 22.3864C344.792 21.9697 344.593 21.4432 344.597 20.8068C344.593 20.2689 344.739 19.803 345.034 19.4091C345.333 19.0114 345.748 18.7045 346.278 18.4886C346.813 18.2689 347.428 18.1591 348.125 18.1591C349.148 18.1591 349.953 18.3769 350.54 18.8125C351.131 19.2481 351.496 19.8371 351.636 20.5795ZM357.03 22.2557C357.03 23.6723 356.841 24.9773 356.462 26.1705C356.087 27.3598 355.527 28.4602 354.78 29.4716H352.843C353.135 29.0966 353.404 28.6383 353.65 28.0966C353.9 27.5549 354.116 26.9602 354.297 26.3125C354.483 25.6648 354.627 24.9943 354.729 24.3011C354.835 23.608 354.888 22.9261 354.888 22.2557C354.888 21.358 354.797 20.4489 354.616 19.5284C354.438 18.608 354.193 17.7538 353.883 16.9659C353.576 16.178 353.229 15.5341 352.843 15.0341H354.78C355.527 16.0455 356.087 17.1477 356.462 18.3409C356.841 19.5303 357.03 20.8352 357.03 22.2557Z" fill="#1177FF"/>
</svg>
