<svg width="244" height="81" viewBox="0 0 244 81" fill="none" xmlns="http://www.w3.org/2000/svg">
<path d="M12.456 15.392C12.456 16.752 12.016 17.864 11.136 18.728C10.272 19.576 9.136 20.088 7.728 20.264V22.4H6.168V20.288C4.84 20.208 3.704 19.848 2.76 19.208C1.816 18.568 1.136 17.696 0.72 16.592L3.096 15.224C3.656 16.632 4.68 17.416 6.168 17.576V12.584C5.448 12.312 4.864 12.072 4.416 11.864C3.968 11.64 3.488 11.336 2.976 10.952C2.48 10.568 2.104 10.104 1.848 9.56C1.608 9 1.488 8.352 1.488 7.616C1.488 6.272 1.936 5.184 2.832 4.352C3.728 3.52 4.84 3.04 6.168 2.912V0.8H7.728V2.936C9.872 3.224 11.36 4.32 12.192 6.224L9.864 7.568C9.448 6.528 8.736 5.896 7.728 5.672V10.424C8.24 10.616 8.624 10.768 8.88 10.88C9.152 10.992 9.504 11.16 9.936 11.384C10.384 11.608 10.728 11.832 10.968 12.056C11.208 12.28 11.456 12.552 11.712 12.872C11.984 13.192 12.176 13.568 12.288 14C12.4 14.416 12.456 14.88 12.456 15.392ZM4.248 7.616C4.248 8.112 4.392 8.52 4.68 8.84C4.984 9.16 5.48 9.48 6.168 9.8V5.624C5.576 5.72 5.104 5.944 4.752 6.296C4.416 6.648 4.248 7.088 4.248 7.616ZM7.728 17.552C8.368 17.424 8.856 17.168 9.192 16.784C9.528 16.4 9.696 15.944 9.696 15.416C9.696 14.888 9.536 14.464 9.216 14.144C8.896 13.808 8.4 13.488 7.728 13.184V17.552Z" fill="black"/>
<path d="M29.3054 74V64.0284L52.6044 42.4553C54.5859 40.5376 56.2479 38.8118 57.5902 37.2777C58.9538 35.7436 59.9872 34.2415 60.6903 32.7713C61.3935 31.2798 61.745 29.6712 61.745 27.9453C61.745 26.0277 61.3082 24.3764 60.4347 22.9915C59.5611 21.5852 58.3679 20.5092 56.8551 19.7635C55.3423 18.9964 53.6271 18.6129 51.7095 18.6129C49.7067 18.6129 47.9595 19.0178 46.468 19.8274C44.9766 20.6371 43.826 21.7983 43.0163 23.3111C42.2067 24.8239 41.8018 26.6243 41.8018 28.7124H28.6662C28.6662 24.4297 29.6357 20.7116 31.5746 17.5582C33.5135 14.4048 36.2301 11.9652 39.7244 10.2393C43.2188 8.51349 47.2457 7.65057 51.8054 7.65057C56.4929 7.65057 60.5732 8.48153 64.0462 10.1435C67.5405 11.7841 70.2571 14.0639 72.196 16.983C74.1349 19.902 75.1044 23.2472 75.1044 27.0185C75.1044 29.4901 74.6143 31.9297 73.6342 34.3374C72.6754 36.745 70.9602 39.419 68.4886 42.3594C66.017 45.2784 62.5334 48.7834 58.0376 52.8743L48.4815 62.2386V62.6861H75.9673V74H29.3054ZM110.412 74.8949C105.491 74.8949 101.112 74.0959 97.2768 72.4979C93.4629 70.8786 90.4693 68.6733 88.296 65.8821C86.1227 63.0909 85.036 59.9268 85.036 56.3899C85.036 53.6626 85.6539 51.1591 86.8897 48.8793C88.1468 46.5781 89.8514 44.6712 92.0034 43.1584C94.1554 41.6243 96.563 40.6442 99.2264 40.218V39.7706C95.7321 39.0675 92.8983 37.3736 90.725 34.6889C88.5517 31.983 87.465 28.8402 87.465 25.2607C87.465 21.8729 88.4558 18.858 90.4373 16.2159C92.4189 13.5526 95.1355 11.4645 98.5872 9.9517C102.06 8.41761 106.002 7.65057 110.412 7.65057C114.823 7.65057 118.754 8.41761 122.206 9.9517C125.679 11.4858 128.406 13.5845 130.388 16.2479C132.369 18.8899 133.371 21.8942 133.392 25.2607C133.371 28.8615 132.263 32.0043 130.068 34.6889C127.873 37.3736 125.061 39.0675 121.631 39.7706V40.218C124.251 40.6442 126.627 41.6243 128.758 43.1584C130.91 44.6712 132.614 46.5781 133.871 48.8793C135.15 51.1591 135.8 53.6626 135.821 56.3899C135.8 59.9268 134.702 63.0909 132.529 65.8821C130.356 68.6733 127.351 70.8786 123.516 72.4979C119.702 74.0959 115.334 74.8949 110.412 74.8949ZM110.412 64.7315C112.607 64.7315 114.525 64.3374 116.165 63.549C117.806 62.7393 119.084 61.6314 120.001 60.2251C120.938 58.7976 121.407 57.157 121.407 55.3033C121.407 53.407 120.927 51.7344 119.969 50.2855C119.01 48.8153 117.71 47.6648 116.069 46.8338C114.429 45.9815 112.543 45.5554 110.412 45.5554C108.303 45.5554 106.417 45.9815 104.756 46.8338C103.094 47.6648 101.783 48.8153 100.824 50.2855C99.8869 51.7344 99.4181 53.407 99.4181 55.3033C99.4181 57.157 99.8762 58.7976 100.792 60.2251C101.709 61.6314 102.998 62.7393 104.66 63.549C106.322 64.3374 108.239 64.7315 110.412 64.7315ZM110.412 35.4879C112.245 35.4879 113.875 35.1151 115.302 34.3693C116.73 33.6236 117.849 32.5902 118.658 31.2692C119.468 29.9482 119.873 28.4247 119.873 26.6989C119.873 24.9943 119.468 23.5028 118.658 22.2244C117.849 20.9247 116.741 19.9126 115.334 19.1882C113.928 18.4425 112.287 18.0696 110.412 18.0696C108.559 18.0696 106.918 18.4425 105.491 19.1882C104.063 19.9126 102.944 20.9247 102.135 22.2244C101.346 23.5028 100.952 24.9943 100.952 26.6989C100.952 28.4247 101.357 29.9482 102.167 31.2692C102.976 32.5902 104.095 33.6236 105.523 34.3693C106.95 35.1151 108.58 35.4879 110.412 35.4879Z" fill="black"/>
<path d="M163.456 15.392C163.456 16.752 163.016 17.864 162.136 18.728C161.272 19.576 160.136 20.088 158.728 20.264V22.4H157.168V20.288C155.84 20.208 154.704 19.848 153.76 19.208C152.816 18.568 152.136 17.696 151.72 16.592L154.096 15.224C154.656 16.632 155.68 17.416 157.168 17.576V12.584C156.448 12.312 155.864 12.072 155.416 11.864C154.968 11.64 154.488 11.336 153.976 10.952C153.48 10.568 153.104 10.104 152.848 9.56C152.608 9 152.488 8.352 152.488 7.616C152.488 6.272 152.936 5.184 153.832 4.352C154.728 3.52 155.84 3.04 157.168 2.912V0.8H158.728V2.936C160.872 3.224 162.36 4.32 163.192 6.224L160.864 7.568C160.448 6.528 159.736 5.896 158.728 5.672V10.424C159.24 10.616 159.624 10.768 159.88 10.88C160.152 10.992 160.504 11.16 160.936 11.384C161.384 11.608 161.728 11.832 161.968 12.056C162.208 12.28 162.456 12.552 162.712 12.872C162.984 13.192 163.176 13.568 163.288 14C163.4 14.416 163.456 14.88 163.456 15.392ZM155.248 7.616C155.248 8.112 155.392 8.52 155.68 8.84C155.984 9.16 156.48 9.48 157.168 9.8V5.624C156.576 5.72 156.104 5.944 155.752 6.296C155.416 6.648 155.248 7.088 155.248 7.616ZM158.728 17.552C159.368 17.424 159.856 17.168 160.192 16.784C160.528 16.4 160.696 15.944 160.696 15.416C160.696 14.888 160.536 14.464 160.216 14.144C159.896 13.808 159.4 13.488 158.728 13.184V17.552ZM172.188 10.064C173.404 10.352 174.388 10.92 175.14 11.768C175.908 12.6 176.292 13.648 176.292 14.912C176.292 16.592 175.724 17.912 174.588 18.872C173.452 19.832 172.06 20.312 170.412 20.312C169.132 20.312 167.98 20.016 166.956 19.424C165.948 18.832 165.22 17.968 164.772 16.832L167.124 15.464C167.62 16.904 168.716 17.624 170.412 17.624C171.372 17.624 172.132 17.384 172.692 16.904C173.252 16.408 173.532 15.744 173.532 14.912C173.532 14.08 173.252 13.424 172.692 12.944C172.132 12.464 171.372 12.224 170.412 12.224H169.788L168.684 10.568L172.308 5.792H165.276V3.2H175.596V5.552L172.188 10.064ZM183.498 9.536C185.098 9.536 186.45 10.016 187.554 10.976C188.658 11.92 189.21 13.232 189.21 14.912C189.21 16.592 188.642 17.912 187.506 18.872C186.37 19.832 184.978 20.312 183.33 20.312C182.002 20.312 180.826 20.008 179.802 19.4C178.778 18.776 178.05 17.88 177.618 16.712L179.994 15.344C180.442 16.864 181.554 17.624 183.33 17.624C184.274 17.624 185.026 17.384 185.586 16.904C186.162 16.408 186.45 15.744 186.45 14.912C186.45 14.08 186.17 13.424 185.61 12.944C185.05 12.464 184.306 12.224 183.378 12.224H178.482L179.13 3.2H188.49V5.792H181.674L181.386 9.536H183.498ZM193.852 19.76C193.5 20.112 193.076 20.288 192.58 20.288C192.084 20.288 191.66 20.112 191.308 19.76C190.956 19.408 190.78 18.984 190.78 18.488C190.78 17.992 190.948 17.568 191.284 17.216C191.636 16.864 192.068 16.688 192.58 16.688C193.076 16.688 193.5 16.864 193.852 17.216C194.204 17.568 194.38 17.992 194.38 18.488C194.38 18.984 194.204 19.408 193.852 19.76ZM206.418 8.624C206.418 9.904 206.082 11.032 205.41 12.008L200.105 20H196.938L200.778 14.36H200.49C198.746 14.36 197.314 13.832 196.194 12.776C195.09 11.704 194.538 10.32 194.538 8.624C194.538 6.928 195.09 5.552 196.194 4.496C197.314 3.424 198.746 2.888 200.49 2.888C202.234 2.888 203.658 3.424 204.762 4.496C205.866 5.552 206.418 6.928 206.418 8.624ZM197.298 8.624C197.298 9.552 197.594 10.304 198.186 10.88C198.794 11.456 199.562 11.744 200.49 11.744C201.418 11.744 202.178 11.464 202.77 10.904C203.362 10.328 203.658 9.568 203.658 8.624C203.658 7.68 203.362 6.928 202.77 6.368C202.178 5.792 201.418 5.504 200.49 5.504C199.562 5.504 198.794 5.792 198.186 6.368C197.594 6.928 197.298 7.68 197.298 8.624ZM219.496 8.624C219.496 9.904 219.16 11.032 218.488 12.008L213.184 20H210.016L213.856 14.36H213.568C211.824 14.36 210.392 13.832 209.272 12.776C208.168 11.704 207.616 10.32 207.616 8.624C207.616 6.928 208.168 5.552 209.272 4.496C210.392 3.424 211.824 2.888 213.568 2.888C215.312 2.888 216.736 3.424 217.84 4.496C218.944 5.552 219.496 6.928 219.496 8.624ZM210.376 8.624C210.376 9.552 210.672 10.304 211.264 10.88C211.872 11.456 212.64 11.744 213.568 11.744C214.496 11.744 215.256 11.464 215.848 10.904C216.44 10.328 216.736 9.568 216.736 8.624C216.736 7.68 216.44 6.928 215.848 6.368C215.256 5.792 214.496 5.504 213.568 5.504C212.64 5.504 211.872 5.792 211.264 6.368C210.672 6.928 210.376 7.68 210.376 8.624Z" fill="black"/>
<path d="M151 12.8H164.176V14H151V12.8ZM164.172 12.8H177.132V14H164.172V12.8ZM176.898 12.8H189.978V14H176.898V12.8ZM189.508 12.8H195.628V14H189.508V12.8ZM193.938 12.8H207.018V14H193.938V12.8ZM207.016 12.8H220.096V14H207.016V12.8Z" fill="black"/>
<rect x="151.5" y="32.5" width="92" height="33" rx="16.5" stroke="url(#paint0_linear_38_4926)"/>
<path d="M165.62 55V53.2L170.5 48.22C171.687 47.0333 172.28 46.0067 172.28 45.14C172.28 44.46 172.073 43.9333 171.66 43.56C171.26 43.1733 170.747 42.98 170.12 42.98C168.947 42.98 168.08 43.56 167.52 44.72L165.58 43.58C166.02 42.6467 166.64 41.94 167.44 41.46C168.24 40.98 169.127 40.74 170.1 40.74C171.327 40.74 172.38 41.1267 173.26 41.9C174.14 42.6733 174.58 43.7267 174.58 45.06C174.58 46.4867 173.787 48.0067 172.2 49.62L169.04 52.78H174.84V55H165.62ZM176.206 55V53.2L181.086 48.22C182.273 47.0333 182.866 46.0067 182.866 45.14C182.866 44.46 182.659 43.9333 182.246 43.56C181.846 43.1733 181.333 42.98 180.706 42.98C179.533 42.98 178.666 43.56 178.106 44.72L176.166 43.58C176.606 42.6467 177.226 41.94 178.026 41.46C178.826 40.98 179.713 40.74 180.686 40.74C181.913 40.74 182.966 41.1267 183.846 41.9C184.726 42.6733 185.166 43.7267 185.166 45.06C185.166 46.4867 184.373 48.0067 182.786 49.62L179.626 52.78H185.426V55H176.206ZM192.577 46.22C191.963 46.8333 191.19 47.14 190.257 47.14C189.323 47.14 188.543 46.8333 187.917 46.22C187.29 45.5933 186.977 44.8333 186.977 43.94C186.977 43.0467 187.29 42.2933 187.917 41.68C188.543 41.0533 189.323 40.74 190.257 40.74C191.19 40.74 191.963 41.0467 192.577 41.66C193.203 42.2733 193.517 43.0333 193.517 43.94C193.517 44.8333 193.203 45.5933 192.577 46.22ZM190.237 45.38C190.663 45.38 191.01 45.24 191.277 44.96C191.543 44.68 191.677 44.34 191.677 43.94C191.677 43.5267 191.543 43.18 191.277 42.9C191.01 42.62 190.663 42.48 190.237 42.48C189.823 42.48 189.483 42.62 189.217 42.9C188.95 43.18 188.817 43.5267 188.817 43.94C188.817 44.34 188.95 44.68 189.217 44.96C189.483 45.24 189.823 45.38 190.237 45.38ZM188.157 52.94L197.377 42.68L198.457 43.3L189.237 53.58L188.157 52.94ZM196.657 55.24C195.723 55.24 194.943 54.9333 194.317 54.32C193.69 53.6933 193.377 52.9333 193.377 52.04C193.377 51.1467 193.69 50.3933 194.317 49.78C194.943 49.1533 195.723 48.84 196.657 48.84C197.577 48.84 198.35 49.1533 198.977 49.78C199.603 50.3933 199.917 51.1467 199.917 52.04C199.917 52.9333 199.603 53.6933 198.977 54.32C198.35 54.9333 197.577 55.24 196.657 55.24ZM196.637 53.48C197.063 53.48 197.41 53.34 197.677 53.06C197.943 52.78 198.077 52.44 198.077 52.04C198.077 51.6267 197.943 51.28 197.677 51C197.41 50.72 197.063 50.58 196.637 50.58C196.223 50.58 195.883 50.72 195.617 51C195.35 51.28 195.217 51.6267 195.217 52.04C195.217 52.44 195.35 52.78 195.617 53.06C195.883 53.34 196.223 53.48 196.637 53.48ZM211.898 55.26C210.431 55.26 209.185 54.7533 208.158 53.74C207.131 52.7267 206.618 51.48 206.618 50C206.618 48.52 207.131 47.2733 208.158 46.26C209.185 45.2467 210.431 44.74 211.898 44.74C213.378 44.74 214.625 45.2467 215.638 46.26C216.665 47.2733 217.178 48.52 217.178 50C217.178 51.48 216.665 52.7267 215.638 53.74C214.625 54.7533 213.378 55.26 211.898 55.26ZM209.678 52.26C210.278 52.86 211.018 53.16 211.898 53.16C212.778 53.16 213.518 52.86 214.118 52.26C214.718 51.66 215.018 50.9067 215.018 50C215.018 49.0933 214.718 48.34 214.118 47.74C213.518 47.14 212.778 46.84 211.898 46.84C211.018 46.84 210.278 47.14 209.678 47.74C209.078 48.34 208.778 49.0933 208.778 50C208.778 50.9067 209.078 51.66 209.678 52.26ZM229.52 42.62C227.946 42.4733 227.16 43.1333 227.16 44.6V45H229.52V47.08H227.16V55H225V47.08H221.66V55H219.5V47.08H217.98V45H219.5V44.8C219.5 43.4267 219.88 42.3867 220.64 41.68C221.413 40.96 222.54 40.6467 224.02 40.74V42.82C222.446 42.6733 221.66 43.3333 221.66 44.8V45H225V44.6C225 43.2267 225.38 42.1867 226.14 41.48C226.913 40.76 228.04 40.4467 229.52 40.54V42.62Z" fill="black"/>
<defs>
<linearGradient id="paint0_linear_38_4926" x1="180.42" y1="22.878" x2="235.914" y2="55.0451" gradientUnits="userSpaceOnUse">
<stop stop-color="#CD43FF"/>
<stop offset="0.201764" stop-color="#FD65A6"/>
<stop offset="0.694469" stop-color="#FC9651"/>
<stop offset="1" stop-color="#FFBD72"/>
</linearGradient>
</defs>
</svg>
