<svg width="24" height="24" viewBox="0 0 24 24" fill="none" xmlns="http://www.w3.org/2000/svg">
<path d="M16.58 6.50578L9.84067 13.2542L7.41824 10.824L7.41157 10.8173L7.40478 10.8107C7.21381 10.6263 6.98837 10.4812 6.74134 10.3839C6.4943 10.2865 6.23052 10.2388 5.96504 10.2434C5.69955 10.248 5.43757 10.3048 5.19406 10.4106C4.95054 10.5165 4.73025 10.6692 4.54578 10.8602C4.3613 11.0512 4.21625 11.2766 4.11889 11.5237C4.02154 11.7707 3.9738 12.0345 3.97839 12.3C3.98298 12.5654 4.03982 12.8274 4.14566 13.0709C4.25016 13.3114 4.4004 13.5291 4.588 13.7122L8.42001 17.5442C8.42059 17.5448 8.42117 17.5454 8.42175 17.5459C8.60732 17.7326 8.8279 17.8807 9.07086 17.982C9.31458 18.0835 9.57599 18.1358 9.84001 18.1358C10.104 18.1358 10.3654 18.0835 10.6092 17.982C10.8521 17.8808 11.0727 17.7326 11.2582 17.546C11.2588 17.5454 11.2594 17.5448 11.26 17.5442L19.4053 9.39889C19.6003 9.21473 19.7563 8.99319 19.8639 8.7474C19.9747 8.4944 20.0319 8.22119 20.0319 7.94498C20.0319 7.66878 19.9747 7.39557 19.8639 7.14257C19.7561 6.89635 19.5997 6.67446 19.4043 6.49012C19.2217 6.31003 19.0061 6.16669 18.7692 6.068C18.5254 5.96646 18.264 5.91418 18 5.91418C17.736 5.91418 17.4746 5.96646 17.2309 6.068C16.9877 6.16929 16.767 6.31761 16.5814 6.50442C16.5809 6.50487 16.5805 6.50533 16.58 6.50578Z" fill="black" stroke="white" stroke-width="2"/>
</svg>
